<svg width="800" height="800" viewBox="0 0 800 800" fill="none" xmlns="http://www.w3.org/2000/svg">
<path d="M468.333 200C500.893 206.352 530.813 222.275 554.27 245.731C577.727 269.187 593.65 299.109 600 331.667M468.333 66.6667C535.977 74.1814 599.053 104.472 647.21 152.567C695.363 200.661 725.737 263.7 733.333 331.333M616.667 700C331.32 700 100 468.68 100 183.333C100 170.459 100.471 157.695 101.396 145.058C102.458 130.554 102.989 123.302 106.79 116.701C109.938 111.234 115.517 106.049 121.199 103.308C128.06 100 136.063 100 152.067 100H245.977C259.436 100 266.165 100 271.934 102.215C277.03 104.172 281.567 107.35 285.147 111.47C289.2 116.134 291.5 122.459 296.1 135.107L334.97 242.002C340.32 256.718 342.997 264.076 342.543 271.057C342.143 277.212 340.04 283.136 336.473 288.169C332.429 293.876 325.715 297.904 312.288 305.961L266.667 333.333C306.73 421.63 378.337 493.33 466.667 533.333L494.04 487.713C502.097 474.283 506.123 467.57 511.83 463.527C516.863 459.96 522.787 457.857 528.943 457.457C535.923 457.003 543.283 459.68 558 465.03L664.893 503.9C677.54 508.5 683.867 510.8 688.53 514.853C692.65 518.433 695.83 522.97 697.783 528.067C700 533.833 700 540.563 700 554.023V647.933C700 663.937 700 671.94 696.69 678.8C693.95 684.483 688.767 690.063 683.3 693.21C676.697 697.01 669.447 697.54 654.943 698.603C642.303 699.53 629.54 700 616.667 700Z" stroke="white" stroke-width="66.6667" stroke-linecap="round" stroke-linejoin="round"/>
</svg>
