<svg width="459" height="479" viewBox="0 0 459 479" fill="none" xmlns="http://www.w3.org/2000/svg">
<path d="M236.628 -0.249908C237.403 -0.250583 238.178 -0.251258 238.977 -0.251953C251.816 -0.234264 264.257 0.475402 276.878 3.00009C277.744 3.1717 278.611 3.3433 279.504 3.52011C313.627 10.5031 344.022 25.3561 371.878 46.0001C372.492 46.455 373.107 46.9098 373.74 47.3785C380.887 52.7158 387.657 58.4325 394.253 64.4376C394.914 65.0291 395.575 65.6206 396.257 66.2301C396.861 66.7923 397.466 67.3545 398.088 67.9337C398.897 68.677 398.897 68.677 399.723 69.4354C400.878 71.0001 400.878 71.0001 400.878 75.0001C399.906 76.805 399.906 76.805 398.526 78.6602C398.012 79.3615 397.497 80.0627 396.967 80.7852C396.401 81.5368 395.836 82.2883 395.253 83.0626C394.669 83.8541 394.085 84.6456 393.483 85.461C392.246 87.1361 391.005 88.808 389.759 90.4771C387.365 93.6879 384.99 96.9133 382.616 100.139C381.45 101.722 380.284 103.304 379.116 104.884C375.122 110.291 371.176 115.73 367.253 121.188C362.935 127.189 358.564 133.148 354.128 139.063C353.614 139.748 353.1 140.433 352.57 141.139C349.013 145.865 349.013 145.865 347.878 147C343.98 147.52 342.379 147.378 339.194 144.981C338.285 144.059 337.376 143.137 336.44 142.188C312.342 118.75 278.702 101.758 244.878 100C243.966 99.9472 243.055 99.8944 242.116 99.8399C218.467 99.1435 195.422 105.602 174.878 117C173.822 117.566 172.766 118.132 171.678 118.715C138.932 136.907 115.194 168.402 104.628 204.098C95.0086 238.79 100.296 275.716 117.878 307C123.084 315.665 129.024 323.621 135.971 330.973C137.878 333 137.878 333 140.253 336.063C144.323 340.618 149.075 344.243 153.878 348C154.831 348.758 155.785 349.516 156.768 350.297C183.622 371.12 217.564 381.827 251.503 378.313C282.297 374.346 307.922 358.576 331.253 338.875C331.824 338.396 332.395 337.918 332.983 337.424C346.037 326.213 350.532 312.771 352.878 296C352.292 295.997 351.706 295.993 351.103 295.99C336.865 295.909 322.627 295.817 308.39 295.713C301.505 295.662 294.62 295.616 287.734 295.578C281.095 295.542 274.455 295.495 267.816 295.442C265.278 295.423 262.74 295.408 260.201 295.397C256.657 295.38 253.113 295.351 249.569 295.319C248.511 295.317 247.452 295.315 246.361 295.312C245.399 295.301 244.437 295.29 243.446 295.279C242.607 295.273 241.768 295.268 240.904 295.262C238.878 295 238.878 295 236.878 293C236.679 290.27 236.605 287.641 236.619 284.91C236.613 283.656 236.613 283.656 236.608 282.377C236.599 279.606 236.605 276.834 236.612 274.063C236.611 272.142 236.609 270.222 236.606 268.301C236.603 264.273 236.607 260.244 236.617 256.216C236.628 251.044 236.622 245.872 236.61 240.7C236.602 236.733 236.605 232.766 236.61 228.8C236.611 226.892 236.61 224.985 236.605 223.077C236.6 220.415 236.608 217.752 236.619 215.09C236.615 214.296 236.611 213.502 236.606 212.684C236.649 207.229 237.149 207.729 239.377 205.5C242.236 205.306 244.497 204.74 247.356 204.76C248.244 204.758 249.132 204.756 250.047 204.754C253.039 204.751 256.032 204.762 259.025 204.773C261.163 204.774 263.301 204.773 265.439 204.772C271.259 204.772 277.079 204.783 282.899 204.797C288.975 204.81 295.052 204.811 301.129 204.813C312.642 204.82 324.156 204.836 335.67 204.856C348.775 204.878 361.88 204.889 374.985 204.899C401.949 204.92 428.913 204.956 455.878 205C456.207 208.044 456.535 211.088 456.86 214.132C457 215.417 457 215.417 457.142 216.728C457.786 222.768 458.184 228.743 458.178 234.82C458.187 236.177 458.187 236.177 458.195 237.561C458.207 240.416 458.201 243.27 458.19 246.125C458.188 247.112 458.186 248.098 458.184 249.115C458.131 264.268 457.661 279.064 454.878 294C454.587 295.593 454.587 295.593 454.292 297.217C445.805 342.344 425.28 389.274 388.878 419C388.05 419.691 387.222 420.382 386.37 421.094C383.559 423.421 380.721 425.713 377.878 428C377.356 428.427 376.834 428.854 376.296 429.294C331.009 466.322 275.519 482.4 217.378 477.313C170.585 472.571 125.017 454.173 88.8775 424C88.302 423.526 87.7264 423.052 87.1334 422.564C74.4882 412.128 62.9615 400.96 52.8775 388C52.1015 387.041 51.3255 386.082 50.526 385.094C43.2011 375.885 36.9214 366.088 30.8775 356C30.309 355.054 30.309 355.054 29.7291 354.088C-0.892742 302.227 -7.10479 236.894 7.62752 179.188C17.6055 142.029 36.4619 108.706 61.8775 80.0001C62.3583 79.4561 62.8392 78.9121 63.3346 78.3517C100.939 36.0839 153.724 8.19592 209.878 1.00009C210.585 0.905829 211.292 0.811566 212.021 0.714447C220.197 -0.246773 228.406 -0.243458 236.628 -0.249908Z" fill="white"/>
<path d="M247.356 204.759L244.815 204.742C237.878 204 236.377 206 236.606 212.684L236.619 215.09C236.607 217.752 236.6 220.414 236.605 223.077C236.609 224.985 236.611 226.892 236.61 228.799C236.604 232.766 236.602 236.733 236.609 240.7C236.621 245.872 236.628 251.044 236.617 256.216C236.607 260.244 236.603 264.272 236.606 268.301C236.608 270.221 236.61 272.142 236.612 274.062C236.605 276.834 236.599 279.605 236.608 282.377L236.619 284.91C236.605 287.641 236.679 290.27 236.877 293C238.877 295 238.877 295 240.904 295.262L243.446 295.278L246.361 295.312L249.569 295.319C253.113 295.351 256.657 295.38 260.201 295.397C262.739 295.408 265.278 295.423 267.816 295.442C274.455 295.495 281.095 295.542 287.734 295.578C294.619 295.616 301.505 295.662 308.39 295.712C322.627 295.817 336.865 295.909 351.103 295.99L352.877 296C352.554 297.81 352.229 299.62 351.9 301.43L351.491 303.67C350.512 309.177 349.878 311 346.878 319L343.378 325.5L343.379 325.502C346.878 330 346.878 330 349.073 332.715C355.848 341.293 362.116 350.271 368.252 359.312C372.572 365.678 376.976 371.967 381.502 378.187C385.754 384.027 389.926 389.911 394.002 395.875L394.342 396.374C396.787 399.967 399.227 403.552 401.877 407C404.132 404.241 407.17 401.797 409.378 399C409.823 398.434 409.945 398.049 410.378 397.5C434.378 368 447.326 334.251 454.291 297.217L454.877 294C457.66 279.064 458.13 264.268 458.183 249.115L458.19 246.125C458.201 243.27 458.207 240.416 458.195 237.561L458.178 234.82C458.184 228.743 457.786 222.768 457.142 216.728L456.86 214.132C456.534 211.088 456.207 208.044 455.877 205C428.913 204.955 401.949 204.92 374.984 204.899C361.879 204.889 348.774 204.878 335.669 204.856C324.156 204.836 312.642 204.819 301.128 204.813L299.412 204.812C293.907 204.81 288.403 204.808 282.899 204.797C277.079 204.783 271.259 204.771 265.439 204.772C263.301 204.773 261.162 204.773 259.024 204.773L258.937 204.773C255.974 204.762 253.01 204.751 250.046 204.754L247.356 204.759Z" fill="#00F5C0"/>
</svg>
